<?xml version="1.0" standalone="no"?>
<!DOCTYPE svg PUBLIC "-//W3C//DTD SVG 20010904//EN"
 "http://www.w3.org/TR/2001/REC-SVG-20010904/DTD/svg10.dtd">
<svg version="1.0" xmlns="http://www.w3.org/2000/svg"
 width="596.000000pt" height="310.000000pt" viewBox="0 0 596.000000 310.000000"
 preserveAspectRatio="xMidYMid meet">

<g transform="translate(0.000000,310.000000) scale(0.100000,-0.100000)"
fill="#000000" stroke="none">
<path d="M1875 1059 c-180 -26 -287 -93 -348 -217 -47 -93 -57 -172 -46 -347
13 -210 184 -383 411 -417 271 -41 526 148 568 419 39 252 -130 499 -382 558
-69 16 -113 17 -203 4z m18 -28 c-4 -15 24 -50 106 -136 90 -95 119 -133 154
-203 40 -81 42 -90 42 -171 0 -103 -21 -151 -97 -223 -128 -122 -324 -122
-459 0 -50 45 -129 153 -129 176 0 6 14 -12 30 -40 40 -68 117 -139 188 -172
76 -36 195 -38 257 -5 66 35 122 90 151 149 23 47 26 63 22 122 -8 112 -67
212 -224 383 -73 80 -85 104 -62 127 18 18 27 15 21 -7z"/>
<path d="M3327 898 c3 -14 -17 -67 -51 -135 -54 -110 -55 -113 -32 -113 14 0
26 5 28 11 4 13 70 28 121 29 31 0 40 -4 44 -20 3 -13 14 -20 29 -20 l23 0
-33 73 c-70 152 -96 197 -115 197 -13 0 -17 -6 -14 -22z m58 -118 c14 -27 25
-51 25 -54 0 -2 -25 -6 -55 -8 -30 -1 -55 -2 -55 -1 0 9 50 113 54 113 3 0 17
-22 31 -50z"/>
<path d="M3601 903 c-44 -22 -71 -67 -71 -121 0 -56 23 -94 73 -122 45 -26
106 -24 150 5 22 14 25 20 16 36 -10 19 -10 19 -36 -1 -31 -24 -90 -26 -122
-4 -30 21 -51 71 -44 107 12 61 108 100 159 63 13 -10 23 -11 31 -4 20 16 16
26 -17 43 -38 20 -96 19 -139 -2z"/>
<path d="M5449 891 c-35 -36 -37 -64 -4 -96 19 -19 35 -25 70 -25 55 0 85 -14
85 -40 0 -46 -81 -65 -137 -31 -25 16 -34 17 -42 7 -19 -23 45 -66 99 -66 70
0 120 39 120 94 0 41 -31 64 -99 72 -72 8 -92 25 -66 54 22 24 81 26 109 5 16
-12 22 -12 28 -2 13 20 10 26 -22 42 -49 25 -107 20 -141 -14z"/>
<path d="M2690 780 l0 -130 86 0 c94 0 120 9 134 45 10 26 -5 85 -21 85 -6 0
-5 8 1 19 16 30 12 76 -8 94 -14 13 -39 17 -105 17 l-87 0 0 -130z m148 94
c16 -5 22 -14 22 -34 0 -33 -14 -40 -81 -40 l-49 0 0 40 0 40 43 0 c23 0 52
-3 65 -6z m36 -137 c18 -30 -24 -57 -90 -57 l-54 0 0 40 0 41 66 -3 c52 -2 69
-7 78 -21z"/>
<path d="M2980 780 l0 -130 105 0 c85 0 105 3 105 15 0 11 -18 15 -82 17 l-83
3 0 35 0 35 53 3 c44 3 52 6 52 23 0 16 -7 19 -56 19 l-55 0 3 38 3 37 73 3
c55 2 72 6 72 17 0 12 -18 15 -95 15 l-95 0 0 -130z"/>
<path d="M3840 780 c0 -123 1 -130 20 -130 18 0 20 7 20 60 l0 60 80 -1 80 -1
0 -59 c0 -46 3 -59 15 -59 13 0 15 21 15 130 0 109 -2 130 -15 130 -11 0 -15
-12 -15 -49 0 -59 -6 -62 -95 -54 l-65 6 0 48 c0 42 -3 49 -20 49 -19 0 -20
-7 -20 -130z"/>
<path d="M4130 895 c0 -11 12 -15 45 -15 l45 0 0 -115 c0 -108 1 -115 20 -115
19 0 20 7 20 115 l0 115 45 0 c33 0 45 4 45 15 0 12 -19 15 -110 15 -91 0
-110 -3 -110 -15z"/>
<path d="M4410 780 l0 -130 100 0 c81 0 100 3 100 15 0 11 -18 15 -82 17 l-83
3 0 35 0 35 53 3 c44 3 52 6 52 23 0 16 -7 19 -56 19 l-55 0 3 38 3 37 73 3
c55 2 72 6 72 17 0 12 -18 15 -90 15 l-90 0 0 -130z"/>
<path d="M4670 891 c5 -11 10 -69 10 -130 0 -104 1 -111 20 -111 17 0 19 8 22
87 l3 86 73 -86 c46 -55 80 -87 93 -87 18 0 19 8 19 130 0 109 -2 130 -15 130
-12 0 -15 -17 -15 -95 0 -52 -4 -95 -9 -95 -5 0 -44 43 -87 95 -58 71 -84 95
-101 95 -20 0 -22 -3 -13 -19z"/>
<path d="M4990 891 c5 -11 10 -69 10 -130 0 -104 1 -111 20 -111 17 0 19 8 22
87 l3 86 73 -86 c46 -55 80 -87 93 -87 18 0 19 8 19 130 0 123 -1 130 -20 130
-18 0 -20 -8 -22 -97 l-3 -96 -79 96 c-60 72 -86 97 -103 97 -20 0 -22 -3 -13
-19z"/>
<path d="M5310 780 c0 -123 1 -130 20 -130 19 0 20 7 20 130 0 123 -1 130 -20
130 -19 0 -20 -7 -20 -130z"/>
<path d="M4749 512 c9 -16 -1 -44 -54 -155 -36 -74 -65 -137 -65 -141 0 -14
35 -4 57 16 18 17 39 22 101 26 76 4 78 4 90 -22 12 -27 52 -37 52 -13 -1 6
-32 77 -70 157 -61 128 -72 145 -95 148 -24 3 -25 1 -16 -16z m37 -212 c-33
-3 -63 -4 -65 -3 -2 1 11 33 29 70 l32 68 33 -65 33 -65 -62 -5z"/>
<path d="M2708 497 c20 -21 22 -34 22 -155 0 -125 1 -132 20 -132 18 0 20 8
22 104 l3 105 85 -104 c61 -75 91 -104 108 -104 22 -1 22 0 22 154 0 148 -1
155 -20 155 -18 0 -20 -8 -22 -117 l-3 -118 -99 118 c-86 103 -102 117 -129
117 l-30 0 21 -23z"/>
<path d="M3080 365 l0 -155 120 0 120 0 0 25 c0 25 0 25 -95 25 l-95 0 0 39
c0 45 10 51 76 51 37 0 44 3 44 20 0 18 -7 20 -60 20 l-60 0 0 45 0 45 85 0
c78 0 85 2 85 20 0 19 -7 20 -110 20 l-110 0 0 -155z"/>
<path d="M3370 505 c0 -8 9 -19 20 -25 18 -10 20 -21 20 -140 l0 -130 68 0
c80 0 127 20 160 70 20 30 23 45 20 97 -4 67 -25 100 -80 129 -39 20 -208 20
-208 -1z m216 -56 c44 -41 44 -120 -1 -165 -20 -20 -34 -24 -80 -24 l-55 0 0
111 0 112 56 -6 c39 -4 64 -13 80 -28z"/>
<path d="M3740 365 l0 -155 115 0 115 0 0 25 c0 25 0 25 -95 25 l-95 0 0 39
c0 45 9 51 81 51 43 0 49 3 49 21 0 19 -5 20 -65 17 l-65 -3 0 48 0 47 85 0
c78 0 85 2 85 20 0 19 -7 20 -105 20 l-105 0 0 -155z"/>
<path d="M4050 365 c0 -147 1 -155 20 -155 16 0 19 8 22 62 l3 63 46 3 45 3
22 -50 c27 -58 38 -69 80 -77 29 -6 32 -4 32 19 0 19 -6 26 -22 29 -12 2 -33
19 -46 38 -22 33 -22 35 -5 47 45 33 53 44 53 77 0 77 -31 96 -160 96 l-90 0
0 -155z m188 99 c29 -20 25 -54 -8 -71 -14 -7 -51 -13 -82 -13 l-58 0 0 50 0
50 63 0 c41 0 70 -5 85 -16z"/>
<path d="M4390 365 l0 -155 110 0 110 0 0 25 c0 25 -1 25 -85 25 l-85 0 0 130
0 130 -25 0 -25 0 0 -155z"/>
<path d="M4980 511 c0 -5 7 -14 15 -21 12 -10 15 -40 15 -146 0 -127 1 -134
20 -134 18 0 20 8 22 105 l3 105 88 -105 c57 -68 94 -105 107 -105 19 0 20 7
20 155 0 148 -1 155 -20 155 -18 0 -20 -8 -22 -116 l-3 -116 -98 116 c-76 90
-104 116 -123 116 -13 0 -24 -4 -24 -9z"/>
<path d="M5344 504 c3 -9 6 -18 6 -20 0 -2 7 -4 15 -4 13 0 15 -22 15 -136 l0
-137 85 5 c77 4 88 7 116 34 60 56 72 118 39 191 -30 67 -66 83 -184 83 -85 0
-97 -2 -92 -16z m185 -35 c65 -23 84 -128 32 -180 -26 -25 -37 -29 -85 -29
l-56 0 0 103 c0 57 3 107 7 110 10 11 67 8 102 -4z"/>
</g>
</svg>
