<?xml version="1.0" standalone="no"?>
<!DOCTYPE svg PUBLIC "-//W3C//DTD SVG 20010904//EN"
 "http://www.w3.org/TR/2001/REC-SVG-20010904/DTD/svg10.dtd">
<svg version="1.0" xmlns="http://www.w3.org/2000/svg"
 width="143.000000pt" height="117.000000pt" viewBox="0 0 143.000000 117.000000"
 preserveAspectRatio="xMidYMid meet">

<g transform="translate(0.000000,117.000000) scale(0.100000,-0.100000)"
fill="#000000" stroke="none">
<path d="M645 1059 c-180 -26 -287 -93 -348 -217 -47 -93 -57 -172 -46 -347
13 -210 184 -383 411 -417 271 -41 526 148 568 419 39 252 -130 499 -382 558
-69 16 -113 17 -203 4z m18 -28 c-4 -15 24 -50 106 -136 90 -95 119 -133 154
-203 40 -81 42 -90 42 -171 0 -103 -21 -151 -97 -223 -128 -122 -324 -122
-459 0 -50 45 -129 153 -129 176 0 6 14 -12 30 -40 40 -68 117 -139 188 -172
76 -36 195 -38 257 -5 66 35 122 90 151 149 23 47 26 63 22 122 -8 112 -67
212 -224 383 -73 80 -85 104 -62 127 18 18 27 15 21 -7z"/>
</g>
</svg>
